<svg xmlns="http://www.w3.org/2000/svg" version="1.1" xmlns:xlink="http://www.w3.org/1999/xlink" xmlns:svgjs="http://svgjs.dev/svgjs" width="128" height="128" viewBox="0 0 128 128"><g transform="matrix(0.8046875,0,0,0.8046875,12.760752631578946,14.878507680137865)"><svg viewBox="0 0 95 91" data-background-color="#4a5d5e" preserveAspectRatio="xMidYMid meet" height="122" width="128" xmlns="http://www.w3.org/2000/svg" xmlns:xlink="http://www.w3.org/1999/xlink"><g id="tight-bounds" transform="matrix(1,0,0,1,-0.24049999999999727,0.032957388329947435)"><svg viewBox="0 0 95.481 90.9340852233401" height="90.9340852233401" width="95.481"><g><svg viewBox="0 0 95.481 90.9340852233401" height="90.9340852233401" width="95.481"><g><svg viewBox="0 0 95.481 90.9340852233401" height="90.9340852233401" width="95.481"><g id="textblocktransform"><svg viewBox="0 0 95.481 90.9340852233401" height="90.9340852233401" width="95.481" id="textblock"><g><svg viewBox="0 0 95.481 90.9340852233401" height="90.9340852233401" width="95.481"><g><svg viewBox="0 0 95.481 90.9340852233401" height="90.9340852233401" width="95.481"><g><svg xmlns:x="http://ns.adobe.com/Extensibility/1.0/" xmlns:i="http://ns.adobe.com/AdobeIllustrator/10.0/" xmlns:graph="http://ns.adobe.com/Graphs/1.0/" xmlns="http://www.w3.org/2000/svg" xmlns:xlink="http://www.w3.org/1999/xlink" version="1.1" x="0" y="0" viewBox="0.48978192380359814 2.9 98.9102180761964 94.19999999999999" enable-background="new 0 0 100 100" xml:space="preserve" height="90.9340852233401" width="95.481" class="icon-icon-0" data-fill-palette-color="accent" id="icon-0"></svg><g></g></g></svg></g></svg></g></svg></g></svg></g><g></g></svg></g><defs></defs><mask id="4d4cf9f0-3c87-40a7-87a0-96c1fc9f8e98"><g id="SvgjsG1050"><svg viewBox="0 0 95.481 90.9340852233401" height="90.9340852233401" width="95.481"><g><svg viewBox="0 0 95.481 90.9340852233401" height="90.9340852233401" width="95.481"><g><svg viewBox="0 0 95.481 90.9340852233401" height="90.9340852233401" width="95.481"><g id="SvgjsG1049"><svg viewBox="0 0 95.481 90.9340852233401" height="90.9340852233401" width="95.481" id="SvgjsSvg1048"><g><svg viewBox="0 0 95.481 90.9340852233401" height="90.9340852233401" width="95.481"><g><svg viewBox="0 0 95.481 90.9340852233401" height="90.9340852233401" width="95.481"><g><svg xmlns:x="http://ns.adobe.com/Extensibility/1.0/" xmlns:i="http://ns.adobe.com/AdobeIllustrator/10.0/" xmlns:graph="http://ns.adobe.com/Graphs/1.0/" xmlns="http://www.w3.org/2000/svg" xmlns:xlink="http://www.w3.org/1999/xlink" version="1.1" x="0" y="0" viewBox="0.48978192380359814 2.9 98.9102180761964 94.19999999999999" enable-background="new 0 0 100 100" xml:space="preserve" height="90.9340852233401" width="95.481" class="icon-icon-0" data-fill-palette-color="accent" id="SvgjsSvg1047"><path d="M50 2.9c-4.1 0-8 0.8-11.8 2.4C22.5 11.7 15 29.8 21.5 45.5c4.8 11.6 16 19.1 28.5 19.1 4.1 0 8-0.8 11.8-2.4C77.5 55.7 85 37.7 78.5 21.9 73.7 10.4 62.5 2.9 50 2.9zM25.5 42.1c-1.9-5.4-1.9-11.2 0-16.7h6.6c-0.5 2.7-0.8 5.6-0.8 8.3 0 2.6 0.3 5.4 1 8.3H25.5zM36.3 33.7c0-2.9 0.3-5.7 0.9-8.3h10.3v16.7H37.4C36.7 39.3 36.3 36.4 36.3 33.7zM52.5 9.2c3.5 1.4 6.7 5.7 8.8 11.2h-8.8V9.2zM47.5 9.2v11.2h-8.8C40.8 14.9 44 10.6 47.5 9.2zM47.5 47.1v11.1c-3.3-1.5-6.4-5.9-8.5-11.1H47.5zM52.5 58.2V47.1H61C58.9 52.3 55.8 56.7 52.5 58.2zM52.5 42.1V25.4h10.3c0.6 2.7 0.9 5.5 0.9 8.3 0 2.7-0.4 5.5-1.1 8.3H52.5zM67.9 25.4h6.6c1.9 5.6 1.8 11.4 0 16.7h-6.8c0.7-2.9 1-5.8 1-8.3C68.7 31 68.4 28.1 67.9 25.4zM72.2 20.4h-5.6c-1.1-3.6-2.7-6.9-4.7-9.6C66.1 13 69.7 16.3 72.2 20.4zM38.1 10.8c-1.9 2.7-3.5 6-4.7 9.6h-5.5C30.3 16.3 33.8 13 38.1 10.8zM27.8 47.1h5.9c1.3 3.7 3 7.2 5.2 10.1C34.4 55 30.5 51.5 27.8 47.1zM61.1 57.1c2.1-2.9 3.9-6.4 5.1-10h5.9C69.6 51.3 65.8 54.9 61.1 57.1zM9.7 97.1c2.7 0 5.3-1.2 7.1-3.3 0.8-1 1.4-2.1 1.8-3.4h22.6c1.1 3.9 4.6 6.7 8.8 6.7 4.2 0 7.7-2.8 8.8-6.7h22.6c1.1 3.9 4.6 6.7 8.8 6.7 5.1 0 9.2-4.1 9.2-9.2 0-5.1-4.1-9.2-9.2-9.2-4.2 0-7.7 2.8-8.8 6.7H58.8c-0.9-3.1-3.3-5.5-6.3-6.3v-6.9c0-1.4-1.1-2.5-2.5-2.5s-2.5 1.1-2.5 2.5v6.9c-3.1 0.9-5.5 3.3-6.3 6.3H18.5c-0.9-3.3-3.7-5.9-7-6.5-3.3-0.6-6.7 0.6-8.9 3.2-1.8 2.1-2.5 4.9-1.9 7.6 0.7 3.6 3.6 6.6 7.2 7.2C8.5 97.1 9.1 97.1 9.7 97.1zM90.3 83.7c2.3 0 4.2 1.9 4.2 4.2 0 2.3-1.9 4.2-4.2 4.2-2.2 0-4-1.7-4.2-3.9 0-0.1 0-0.2 0-0.3s0-0.2 0-0.3C86.3 85.5 88.1 83.7 90.3 83.7zM50 83.7c2.3 0 4.2 1.9 4.2 4.2 0 2.3-1.9 4.2-4.2 4.2s-4.2-1.9-4.2-4.2C45.8 85.6 47.7 83.7 50 83.7zM5.6 88.8c-0.2-1.3 0.1-2.5 0.9-3.5 0.8-1 2-1.5 3.2-1.5 0.3 0 0.6 0 0.8 0.1 1.6 0.3 3 1.6 3.3 3.3 0.2 1.3-0.1 2.5-0.9 3.5-1 1.2-2.5 1.7-4.1 1.4C7.2 91.7 5.9 90.4 5.6 88.8z" fill="white"></path></svg><g></g></g></svg></g></svg></g></svg></g></svg></g><g></g></svg></g><defs><mask></mask></defs></svg><rect width="95.481" height="90.9340852233401" fill="black" stroke="none" visibility="hidden"></rect></g></mask><linearGradient x1="0" x2="1" y1="0.578" y2="0.595" id="d8e67301-ab3b-47be-a561-1ff1d77c1d6e"><stop stop-color="#dede50" offset="0"></stop><stop stop-color="#559c49" offset="1"></stop></linearGradient><rect width="95.481" height="90.9340852233401" fill="url(#d8e67301-ab3b-47be-a561-1ff1d77c1d6e)" mask="url(#4d4cf9f0-3c87-40a7-87a0-96c1fc9f8e98)" data-fill-palette-color="accent"></rect></svg><rect width="95.481" height="90.9340852233401" fill="none" stroke="none" visibility="hidden"></rect></g></svg></g></svg>